<svg width="35" height="26" viewBox="0 0 35 26" fill="none" xmlns="http://www.w3.org/2000/svg">
<g id="bandeira-nasa" clip-path="url(#clip0_1001_188)">
<path id="Vector" d="M30.6907 13C30.6907 20.1304 24.1592 25.9989 16.2223 25.9989C8.28567 25.9989 1.75391 20.1301 1.75391 13C1.75391 5.86923 8.13291 0.0012207 16.2223 0.0012207C24.0057 0.0012207 30.6907 5.86956 30.6907 13" fill="#0F3A97"/>
<path id="Vector_2" d="M19.4859 19.8415C25.6672 22.1284 24.5947 16.3495 21.2997 11.9245C19.4321 9.4176 16.9966 7.32897 15.4604 6.32106C10.3669 2.97778 7.22258 5.00551 10.8193 11.5989C11.9822 13.7307 13.4758 15.1695 14.6424 16.5257C15.5333 17.5611 17.2686 18.0795 16.6573 18.5705C15.9684 19.1246 14.3005 16.6811 14.3005 16.6811C13.0686 15.345 11.8944 13.9193 10.6842 11.9626C7.91949 7.49393 8.31814 2.93287 13.3228 4.91966C17.57 6.60664 21.6267 11.3381 23.2579 14.6981C24.0112 16.2498 26.0651 22.3884 19.5233 19.9065" fill="white"/>
<path id="Vector_3" d="M0.263916 16.8533C2.98325 15.2246 5.56147 14.173 9.94899 12.8696C16.1144 11.0379 20.7545 9.80662 26.4483 7.2329C28.9968 6.0811 33.4188 3.498 35 1.25256C34.5266 2.12165 33.0599 3.81326 32.3964 4.5613C24.6714 13.2602 8.21651 12.767 0.372503 16.9432" fill="#F7410A"/>
<path id="Vector_4" d="M4.20881 10.4954C6.6976 10.513 6.45343 10.4909 6.48251 10.5172C6.52594 10.5172 8.46971 13.5275 8.46971 13.5537C8.46971 13.5664 8.45523 12.4838 8.45523 11.1297C8.45523 10.9733 7.97683 10.5173 7.99107 10.5173C8.70148 10.5173 9.62993 10.5303 9.62993 10.5303C9.28208 10.8952 9.21251 10.8651 9.20957 11.0908C9.19975 11.8157 9.19067 13.156 9.20957 14.6611C9.21227 14.8868 9.39815 14.974 9.70281 15.3649H7.42531C6.68557 14.2573 5.33002 12.1793 5.33677 12.1854C5.3472 12.1949 5.30756 13.4888 5.351 14.531C5.3656 14.8754 5.53971 14.9871 5.85896 15.3C5.85896 15.3 6.2262 15.2912 4.07471 15.3129C4.72745 15.0001 4.64071 14.6093 4.64046 14.5962C4.61703 13.156 4.63555 11.9246 4.63555 11.1297C4.63555 10.9994 4.62574 11.0123 4.1763 10.5172M11.9905 12.7197C12.1994 12.0672 12.378 11.4841 12.4628 11.1038C12.4771 11.0386 12.3032 10.8041 12.0277 10.5695L12.0082 10.5331C13.3371 10.5369 14.7254 10.5437 14.7254 10.5437C15.0881 11.3384 15.9147 13.5667 16.5385 14.9352C16.7034 15.2966 16.9882 15.3651 16.9882 15.3651C15.8568 15.3522 13.7572 15.3611 13.7684 15.3522C14.3339 14.8958 14.2614 14.8958 14.0147 14.2318H12.2453C11.8826 14.9874 12.3583 15.3421 12.4192 15.3393C12.0165 15.3581 10.6498 15.3393 10.6498 15.3393C11.3895 14.8699 11.3458 14.7267 11.3458 14.7267C11.549 14.0765 11.7845 13.3642 11.9906 12.7196L12.7166 12.7197L12.4047 13.6188H13.812L13.0286 11.8204L12.7167 12.7195L11.9907 12.7194M24.1461 12.7848C24.3546 12.1325 24.5333 11.5492 24.6181 11.1689C24.6323 11.1038 24.4582 10.8693 24.1828 10.6345L24.1632 10.5983C25.4925 10.6021 26.8811 10.6088 26.8811 10.6088C27.2432 11.4037 28.07 13.6318 28.6936 15.0003C28.8584 15.3622 29.1429 15.4302 29.1429 15.4302C28.0122 15.4173 25.9125 15.4262 25.9235 15.4173C26.4891 14.9613 26.4168 14.9613 26.1702 14.2969H24.4004C24.0377 15.0526 24.5132 15.4072 24.574 15.4046C24.1717 15.4232 22.8046 15.4046 22.8046 15.4046C23.5444 14.9354 23.501 14.792 23.501 14.792C23.7042 14.1416 23.9396 13.4297 24.1461 12.7848H24.8719C24.7156 13.2347 24.5603 13.6842 24.5603 13.6842H25.9669L25.1835 11.8856C25.1835 11.8856 25.028 12.335 24.8719 12.7846L24.1461 12.7848M21.8579 11.7166C21.8291 10.7908 21.8579 10.4914 21.8579 10.4914C21.4081 10.8173 21.6352 10.7757 20.5092 10.6086C17.2646 10.1272 17.0174 12.8513 18.7831 13.4623C20.2653 13.9754 20.7903 14.0761 20.567 14.5568C20.4945 14.7138 19.1457 15.2869 17.7533 14.1269L17.7817 15.743C17.9559 15.5817 18.4348 15.2869 18.4348 15.2869C18.4489 15.2869 19.9439 15.8791 21.2919 15.2609C23.3663 14.3098 22.331 12.7701 20.1172 12.1595C18.2749 11.6512 20.0156 10.4652 21.8429 11.7294M16.426 1.18164C16.4259 1.20973 16.4135 1.23665 16.3914 1.25653C16.3693 1.27641 16.3394 1.28765 16.3082 1.28779C16.277 1.28762 16.2471 1.27637 16.225 1.2565C16.203 1.23662 16.1905 1.20972 16.1904 1.18164C16.1904 1.12404 16.2438 1.07593 16.3082 1.07593C16.3394 1.07601 16.3692 1.08717 16.3913 1.10697C16.4133 1.12677 16.4258 1.15361 16.426 1.18164M17.2431 2.7863C17.2431 2.8578 17.1771 2.91684 17.0981 2.91684C17.0597 2.91669 17.0228 2.9029 16.9956 2.87845C16.9684 2.854 16.953 2.82088 16.9528 2.7863C16.9528 2.71501 17.0184 2.6562 17.0981 2.6562C17.1773 2.6562 17.2431 2.7149 17.2431 2.7863ZM19.3631 5.40879C19.3631 5.48008 19.2981 5.53911 19.2179 5.53911C19.1796 5.53888 19.1429 5.52508 19.1157 5.50069C19.0886 5.47631 19.0732 5.44329 19.0729 5.40879C19.0729 5.33729 19.1337 5.27814 19.2135 5.27814C19.2935 5.27836 19.3631 5.33729 19.3631 5.40879ZM15.9548 3.69037C15.9547 3.71842 15.9422 3.74528 15.9202 3.7651C15.8981 3.78493 15.8682 3.7961 15.837 3.79619C15.8058 3.7961 15.7759 3.78494 15.7538 3.76512C15.7317 3.7453 15.7192 3.71844 15.719 3.69037C15.719 3.63243 15.7724 3.58443 15.837 3.58443C15.8682 3.58452 15.8981 3.59571 15.9202 3.61556C15.9423 3.6354 15.9547 3.6623 15.9548 3.69037ZM17.2247 4.29319C17.2245 4.32118 17.212 4.34797 17.19 4.36775C17.168 4.38754 17.1382 4.39873 17.1071 4.3989C17.0759 4.39876 17.0461 4.38758 17.024 4.3678C17.0019 4.34802 16.9894 4.32121 16.9892 4.29319C16.9892 4.23526 17.0425 4.18737 17.1071 4.18737C17.1715 4.18737 17.2247 4.23526 17.2247 4.29319ZM15.5745 2.60699C15.5745 2.67849 15.5089 2.73752 15.4294 2.73752C15.3499 2.73752 15.2844 2.67882 15.2844 2.60699C15.2844 2.5357 15.3499 2.47656 15.4294 2.47656C15.5089 2.47656 15.5745 2.53548 15.5745 2.60699ZM13.653 3.65781C13.653 3.71597 13.5999 3.76375 13.5351 3.76375C13.5039 3.7636 13.4741 3.75239 13.452 3.73256C13.43 3.71273 13.4175 3.68587 13.4173 3.65781C13.4173 3.59988 13.4706 3.55188 13.5351 3.55188C13.5663 3.55197 13.5963 3.56315 13.6183 3.583C13.6404 3.60284 13.6529 3.62974 13.653 3.65781M13.9966 3.86935C13.9965 3.89747 13.984 3.9244 13.9619 3.94428C13.9398 3.96416 13.9098 3.97539 13.8785 3.9755C13.8473 3.97536 13.8174 3.96413 13.7953 3.94425C13.7732 3.92437 13.7607 3.89746 13.7605 3.86935C13.7619 3.84203 13.7749 3.81625 13.7969 3.79736C13.8189 3.77847 13.8481 3.76793 13.8785 3.76793C13.909 3.76793 13.9382 3.77847 13.9602 3.79736C13.9822 3.81625 13.9952 3.84203 13.9966 3.86935ZM14.3414 4.08121C14.3413 4.1093 14.3288 4.13622 14.3068 4.1561C14.2847 4.17598 14.2548 4.18722 14.2236 4.18737C14.1923 4.18722 14.1624 4.17599 14.1403 4.15611C14.1183 4.13623 14.1058 4.10931 14.1057 4.08121C14.1057 4.0235 14.159 3.97561 14.2236 3.97561C14.2882 3.97561 14.3414 4.02339 14.3414 4.08121ZM13.8162 4.48861C13.8159 4.51666 13.8034 4.54347 13.7813 4.56328C13.7592 4.58309 13.7294 4.59432 13.6982 4.59455C13.667 4.5944 13.6371 4.5832 13.615 4.56337C13.5929 4.54354 13.5804 4.51668 13.5802 4.48861C13.5802 4.43068 13.6334 4.38279 13.6982 4.38279C13.7626 4.38279 13.8162 4.43068 13.8162 4.48861ZM11.0781 6.2152C11.0779 6.24326 11.0654 6.27012 11.0433 6.28992C11.0212 6.30972 10.9913 6.32086 10.9601 6.32092C10.8954 6.32092 10.8422 6.27325 10.8422 6.2152C10.8422 6.15716 10.8955 6.10916 10.9601 6.10916C11.0246 6.10916 11.0781 6.15705 11.0781 6.2152ZM11.5856 6.76925C11.5853 6.79729 11.5728 6.8241 11.5508 6.8439C11.5287 6.86371 11.4989 6.8749 11.4677 6.87508C11.4365 6.8749 11.4066 6.86371 11.3846 6.84391C11.3625 6.82411 11.3499 6.7973 11.3496 6.76925C11.3496 6.71099 11.403 6.66332 11.4677 6.66332C11.5323 6.66332 11.5856 6.71099 11.5856 6.76925ZM11.1822 15.7123C11.182 15.7403 11.1695 15.7672 11.1474 15.787C11.1253 15.8068 11.0954 15.818 11.0643 15.8181C10.9996 15.8181 10.9465 15.7702 10.9465 15.7123C10.9465 15.6544 10.9996 15.6062 11.0643 15.6062C11.129 15.6062 11.1822 15.6544 11.1822 15.7123ZM11.2547 18.1795C11.2547 18.251 11.1892 18.31 11.1097 18.31C11.0301 18.31 10.9646 18.2514 10.9646 18.1795C10.9646 18.1082 11.0301 18.0493 11.1097 18.0493C11.148 18.0495 11.1848 18.0633 11.2119 18.0876C11.2391 18.112 11.2544 18.145 11.2547 18.1795M9.69508 19.4432C9.69485 19.4712 9.68238 19.498 9.66036 19.5178C9.63834 19.5376 9.60854 19.5487 9.57741 19.5489C9.54625 19.5488 9.51641 19.5376 9.49434 19.5178C9.47228 19.498 9.45976 19.4712 9.4595 19.4432C9.4595 19.3848 9.51287 19.3372 9.57741 19.3372C9.64183 19.3372 9.69508 19.3847 9.69508 19.4432ZM7.82788 19.955C7.82762 19.9896 7.81223 20.0226 7.78503 20.047C7.75784 20.0715 7.72103 20.0853 7.68261 20.0854C7.64418 20.0853 7.60737 20.0715 7.5802 20.0471C7.55303 20.0227 7.53771 19.9896 7.53758 19.955C7.53758 19.8836 7.6031 19.8246 7.68261 19.8246C7.72102 19.8248 7.75781 19.8386 7.785 19.863C7.81218 19.8874 7.82759 19.9204 7.82788 19.955ZM7.44703 18.8152C7.44703 18.8864 7.38151 18.9453 7.30225 18.9453C7.26391 18.9452 7.22718 18.9314 7.20004 18.907C7.17289 18.8827 7.15751 18.8497 7.15722 18.8152C7.15738 18.7806 7.1727 18.7475 7.19985 18.723C7.227 18.6986 7.2638 18.6847 7.30225 18.6845C7.38151 18.6848 7.44703 18.7436 7.44703 18.8152ZM7.22973 19.5402C7.22973 19.5984 7.17636 19.646 7.11182 19.646C7.04728 19.646 6.99379 19.5984 6.99379 19.5402C6.99379 19.4825 7.04728 19.4343 7.11182 19.4343C7.17636 19.4343 7.22973 19.4822 7.22973 19.5402ZM5.83332 18.9378C5.83313 18.9658 5.82069 18.9926 5.79869 19.0124C5.77669 19.0322 5.7469 19.0434 5.71578 19.0436C5.68458 19.0435 5.65468 19.0324 5.63259 19.0125C5.61049 18.9927 5.59797 18.9659 5.59774 18.9378C5.59774 18.8801 5.65099 18.832 5.71578 18.832C5.78007 18.832 5.83332 18.8798 5.83332 18.9378ZM10.7105 20.9736C10.7105 21.0318 10.6618 21.0796 10.5974 21.0796C10.5327 21.0796 10.4748 21.0318 10.4748 20.9736C10.4748 20.9157 10.5282 20.8677 10.5926 20.8677C10.6575 20.8677 10.7105 20.9156 10.7105 20.9736ZM12.1794 20.0048C12.1794 20.0763 12.1186 20.1354 12.0388 20.1354C11.9593 20.1354 11.8894 20.0766 11.8894 20.0048C11.8894 19.9335 11.9549 19.8746 12.0344 19.8746C12.0728 19.8747 12.1095 19.8885 12.1367 19.9129C12.1638 19.9372 12.1792 19.9703 12.1794 20.0048M12.3475 21.2506C12.3475 21.3087 12.2895 21.3568 12.2252 21.3568C12.1939 21.3567 12.164 21.3454 12.1419 21.3255C12.1198 21.3056 12.1073 21.2787 12.1072 21.2506C12.1072 21.1929 12.1604 21.145 12.2252 21.145C12.2895 21.1449 12.3475 21.1925 12.3475 21.2506ZM18.3842 20.061C18.384 20.089 18.3716 20.1158 18.3496 20.1357C18.3276 20.1555 18.2978 20.1668 18.2667 20.1671C18.2354 20.1669 18.2055 20.1557 18.1834 20.1359C18.1613 20.116 18.1487 20.0891 18.1484 20.061C18.1484 20.0029 18.2016 19.9552 18.2667 19.9552C18.331 19.9552 18.3842 20.0029 18.3842 20.061ZM15.5745 20.9569C15.5743 20.985 15.5619 21.0119 15.5398 21.0317C15.5178 21.0515 15.4879 21.0627 15.4567 21.0628C15.4255 21.0626 15.3957 21.0514 15.3736 21.0316C15.3516 21.0118 15.3391 20.985 15.3389 20.9569C15.3389 20.8992 15.3923 20.8511 15.4567 20.8511C15.5215 20.8511 15.5745 20.899 15.5745 20.9569ZM23.1352 22.2447C23.1349 22.2727 23.1224 22.2995 23.1003 22.3193C23.0783 22.3391 23.0484 22.3503 23.0173 22.3505C22.986 22.3504 22.9561 22.3392 22.934 22.3194C22.9119 22.2996 22.8994 22.2728 22.8991 22.2447C22.8991 22.1869 22.9526 22.1389 23.0173 22.1389C23.0817 22.1389 23.1352 22.1866 23.1352 22.2447ZM23.751 17.2351C23.7508 17.2696 23.7354 17.3027 23.7082 17.3272C23.681 17.3516 23.6442 17.3654 23.6057 17.3656C23.5673 17.3654 23.5305 17.3516 23.5033 17.3271C23.4761 17.3027 23.4608 17.2696 23.4606 17.2351C23.4606 17.1636 23.526 17.1045 23.6057 17.1045C23.6442 17.1047 23.681 17.1185 23.7082 17.1429C23.7354 17.1674 23.7508 17.2005 23.751 17.2351M22.5915 17.9435C22.5913 17.9716 22.5787 17.9985 22.5566 18.0183C22.5345 18.0382 22.5046 18.0494 22.4733 18.0495C22.409 18.0495 22.3557 18.0015 22.3557 17.9435C22.3557 17.8854 22.409 17.8378 22.4733 17.8378C22.5381 17.8378 22.5915 17.8853 22.5915 17.9435ZM23.734 18.1476C23.734 18.219 23.6687 18.2783 23.5888 18.2783C23.5089 18.2783 23.4435 18.2194 23.4435 18.1476C23.4435 18.0763 23.5089 18.0172 23.5888 18.0172C23.6687 18.0172 23.734 18.0763 23.734 18.1476ZM22.5915 19.41C22.5913 19.4381 22.5787 19.4649 22.5566 19.4848C22.5345 19.5046 22.5046 19.5157 22.4733 19.5158C22.4422 19.5156 22.4124 19.5044 22.3904 19.4846C22.3684 19.4648 22.3559 19.438 22.3557 19.41C22.3557 19.3518 22.409 19.304 22.4733 19.304C22.5381 19.304 22.5915 19.3517 22.5915 19.41ZM25.546 16.5266C25.546 16.5845 25.4924 16.6326 25.4281 16.6326C25.397 16.6323 25.3672 16.6211 25.3452 16.6013C25.3231 16.5815 25.3107 16.5547 25.3105 16.5266C25.3105 16.4686 25.3637 16.4209 25.4281 16.4209C25.4925 16.4209 25.546 16.4686 25.546 16.5266ZM25.8319 17.17C25.8319 17.2414 25.7714 17.3005 25.6916 17.3005C25.6119 17.3005 25.5419 17.2417 25.5419 17.17C25.5419 17.0985 25.6073 17.0396 25.6868 17.0396C25.7665 17.0399 25.8319 17.0985 25.8319 17.17ZM27.8675 17.9358C27.8675 18.0072 27.8027 18.0662 27.7223 18.0662C27.6839 18.0661 27.647 18.0523 27.6198 18.0279C27.5926 18.0034 27.5772 17.9703 27.577 17.9358C27.5773 17.9012 27.5926 17.8681 27.6198 17.8436C27.647 17.8192 27.6839 17.8054 27.7223 17.8052C27.7608 17.8053 27.7976 17.8191 27.8248 17.8436C27.852 17.868 27.8673 17.9012 27.8675 17.9358M25.7999 19.2964C25.7996 19.3245 25.787 19.3513 25.7649 19.3711C25.7428 19.3909 25.7129 19.4021 25.6817 19.4023C25.6506 19.4021 25.6207 19.3909 25.5986 19.3711C25.5766 19.3513 25.5641 19.3245 25.5638 19.2964C25.5638 19.2383 25.6173 19.1904 25.6817 19.1904C25.7462 19.1904 25.7999 19.238 25.7999 19.2964ZM27.1055 18.1885C27.1053 18.2165 27.0929 18.2433 27.0709 18.2631C27.0488 18.2829 27.019 18.2941 26.9878 18.2943C26.9567 18.2941 26.9269 18.2829 26.9048 18.2631C26.8828 18.2433 26.8703 18.2165 26.8701 18.1885C26.8701 18.1306 26.9237 18.0825 26.9878 18.0825C27.0523 18.0825 27.1055 18.1303 27.1055 18.1885ZM26.865 19.8988C26.8649 19.9269 26.8524 19.9537 26.8304 19.9735C26.8084 19.9933 26.7785 20.0045 26.7474 20.0047C26.7161 20.0046 26.6862 19.9934 26.6641 19.9736C26.6419 19.9538 26.6294 19.9269 26.6292 19.8988C26.6292 19.8411 26.6825 19.7929 26.7474 19.7929C26.8118 19.7929 26.865 19.8408 26.865 19.8988ZM27.4184 17.0563C27.4184 17.1458 27.3364 17.2192 27.2369 17.2192C27.1375 17.2192 27.0557 17.1458 27.0557 17.0563C27.0557 16.9669 27.1375 16.8935 27.2369 16.8935C27.3364 16.8935 27.4184 16.9669 27.4184 17.0563Z" fill="white"/>
<path id="Vector_5" d="M27.2365 16.5598L27.1827 17.0077L26.6886 17.0567L27.187 17.1053L27.2414 17.5697L27.2959 17.1053L27.7852 17.0481L27.2915 17.0074L27.2365 16.5598M26.1485 19.89C26.1485 19.9796 26.0666 20.0532 25.9671 20.0532C25.919 20.053 25.873 20.0357 25.839 20.0052C25.805 19.9746 25.7858 19.9332 25.7856 19.89C25.7856 19.8006 25.8676 19.7272 25.9671 19.7272C26.0151 19.7274 26.061 19.7446 26.095 19.775C26.129 19.8055 26.1482 19.8468 26.1485 19.89Z" fill="white"/>
<path id="Vector_6" d="M25.9683 19.3934L25.9138 19.8415L25.42 19.8902L25.9184 19.9392L25.973 20.4032L26.0274 19.9392L26.5165 19.882L26.0224 19.8412L25.9683 19.3934ZM12.6237 6.43495C12.6237 6.52434 12.5418 6.59783 12.4425 6.59783C12.3944 6.59771 12.3484 6.58052 12.3144 6.55001C12.2804 6.5195 12.2612 6.47815 12.261 6.43495C12.261 6.34535 12.3427 6.27197 12.4425 6.27197C12.5418 6.27219 12.6237 6.34557 12.6237 6.43495Z" fill="white"/>
<path id="Vector_7" d="M12.442 5.93818L12.3875 6.38607L11.8933 6.43507L12.392 6.48351L12.4464 6.94818L12.5007 6.48351L12.9902 6.42679L12.496 6.38585L12.442 5.93818M19.3681 2.49316C19.3681 2.58254 19.2862 2.65614 19.1867 2.65614C19.0871 2.65614 19.0056 2.58254 19.0056 2.49316C19.0056 2.40356 19.087 2.32996 19.1867 2.32996C19.2863 2.32996 19.3681 2.40378 19.3681 2.49316Z" fill="white"/>
<path id="Vector_8" d="M19.1866 1.99597L19.1326 2.4442L18.6386 2.49319L19.1371 2.54186L19.1911 3.00619L19.2456 2.54186L19.7349 2.4847L19.2408 2.44398L19.1866 1.99597M11.1684 22.4976C11.1684 22.5872 11.0865 22.6606 10.9871 22.6606C10.9391 22.6604 10.8931 22.6432 10.8591 22.6127C10.8251 22.5821 10.8059 22.5408 10.8057 22.4976C10.8057 22.4083 10.8875 22.3345 10.9871 22.3345C11.0865 22.3346 11.1684 22.4084 11.1684 22.4976Z" fill="white"/>
<path id="Vector_9" d="M10.9914 22L10.9372 22.4482L10.4431 22.497L10.9416 22.5457L10.996 23.01L11.0502 22.5457L11.5398 22.4887L11.0458 22.4479L10.9914 22" fill="white"/>
<path id="Vector_10" d="M34.9987 1.25256C32.7937 7.13536 23.9609 11.678 16.5254 16.0144C12.0398 18.6315 7.58623 21.6436 4.52028 24.2065C3.7122 24.8824 4.68494 23.9537 4.37525 24.2392C8.65394 19.8086 13.5758 17.1696 16.2956 15.5083C20.8954 12.6979 23.5117 11.9896 31.4474 5.41572" fill="#F7410A"/>
<path id="Vector_11" d="M2.10302 15.827C1.31114 16.1752 0.601828 16.5193 0 16.8553L0.366127 16.9752C0.892497 16.6838 1.52439 16.3798 2.19002 16.1119M6.28355 22.4102C5.53016 23.001 4.78922 23.6046 4.06114 24.2205L4.02801 24.6698C4.71511 24.0329 5.55915 23.3458 6.53324 22.6164" fill="#EE293D"/>
<path id="Vector_12" d="M19.4859 19.8415C25.6673 22.1285 24.5948 16.3495 21.2998 11.9245C19.4321 9.41766 17.1291 7.42899 15.4604 6.32111C13.512 5.0273 13.3218 4.92004 13.3218 4.92004C17.6729 6.77729 21.6257 11.3383 23.2567 14.6986C24.0101 16.2502 26.064 22.3888 19.522 19.9069" fill="white"/>
</g>
<defs>
<clipPath id="clip0_1001_188">
<rect width="35" height="26" fill="white"/>
</clipPath>
</defs>
</svg>
